# Blender 3.3.21
# www.blender.org
mtllib WoodPlank.mtl
o BP_Stairs_D1_100_Side
v -0.599249 -0.086631 4.546052
v -0.599234 -0.086625 -4.543314
v 0.599247 -0.051828 -4.579101
v 0.599233 -0.086632 4.552034
v 0.620666 -0.051843 4.551360
v -0.482904 -0.086631 4.361344
v 0.482889 -0.086632 4.333694
v -0.482899 -0.086625 -4.363865
v 0.482912 -0.086625 -4.391560
v 0.599257 -0.086622 -4.545469
v 0.620690 -0.051827 -4.546008
v 0.620690 0.080717 -4.545963
v 0.599247 0.080717 -4.579101
v 0.620656 0.080709 4.551405
v 0.599233 0.115507 -4.545424
v -0.599225 0.080714 -4.576991
v -0.599239 -0.051833 -4.576991
v -0.620663 -0.051833 -4.542683
v 0.599237 -0.051840 4.585712
v 0.599233 0.080709 4.585712
v -0.599250 -0.051843 4.579638
v -0.620663 0.080714 -4.542683
v -0.620678 -0.051843 4.546681
v 0.599227 0.115500 4.552034
v -0.599254 0.080707 4.581167
v -0.620678 0.080707 4.548120
v -0.599254 0.115503 4.547490
v -0.599225 0.115505 -4.543314
vn -0.9350 0.2529 -0.2485
vn -0.4354 0.8431 0.3157
vn -0.4369 0.8418 -0.3170
vn -0.4356 -0.8429 0.3158
vn -0.4536 -0.3344 0.8261
vn -0.9321 -0.2563 0.2561
vn -0.4369 -0.8417 -0.3171
vn -0.9351 -0.2528 -0.2485
vn -0.4602 -0.3303 -0.8241
vn -0.4531 0.3287 0.8286
vn 0.4360 0.8420 0.3177
vn -0.9324 0.2535 0.2577
vn 0.4577 -0.3320 0.8248
vn 0.4359 -0.8419 0.3181
vn 0.9351 -0.2528 0.2482
vn 0.4343 -0.8432 -0.3167
vn -0.0000 -1.0000 -0.0000
vn 0.9324 -0.2547 -0.2564
vn 0.4515 -0.3316 -0.8284
vn 0.4515 0.3319 -0.8282
vn 0.9351 0.2529 0.2484
vn -0.4601 0.3305 -0.8241
vn 0.4346 0.8432 -0.3165
vn 0.9324 0.2550 -0.2563
vn 0.4583 0.3291 0.8256
vt 0.989118 0.770832
vt 0.983587 0.006073
vt 0.851451 0.008232
vt 0.845749 0.773032
vt 0.870428 0.797547
vt 0.849349 0.773023
vt 0.980428 0.789076
vt 0.999267 0.754962
vt 0.886973 0.813079
vt 0.835493 0.754464
vt 0.999267 0.002310
vt 0.831926 0.000000
vt 0.845631 0.006004
vt 0.849125 0.008533
vt 0.860192 0.015371
vt 0.861363 0.014653
vt 0.861124 0.773127
vt 0.863592 0.016906
vt 0.967913 0.014295
vt 0.978096 0.008375
vt 0.980115 0.008747
vt 0.849170 0.776498
vt 0.869267 0.792810
vt 0.861260 0.776568
vt 0.865701 0.779863
vt 0.982248 0.769588
vt 0.969109 0.015167
vt 0.985486 0.768934
vt 0.864759 0.773207
vt 0.972360 0.764429
vt 0.973831 0.763619
vt 0.970271 0.762368
vt 0.965706 0.016606
s 1
usemtl Wooden_Planks_2x1_M_uc0najyew
f 22/27/1 27/32/2 28/33/3
f 1/1/4 21/26/5 23/28/6
f 2/2/7 18/21/8 17/20/9
f 25/30/10 24/29/11 27/32/2
f 22/27/1 23/28/6 26/31/12
f 19/22/13 4/4/14 5/6/15
f 10/13/16 7/10/17 9/12/17
f 2/2/7 9/12/17 8/11/17
f 9/12/17 2/2/7 10/13/16
f 1/1/4 18/21/8 2/2/7
f 11/14/18 10/13/16 3/3/19
f 13/16/20 11/14/18 3/3/19
f 14/17/21 19/22/13 5/6/15
f 16/19/22 15/18/23 13/16/20
f 12/15/24 13/16/20 15/18/23
f 5/6/15 10/13/16 11/14/18
f 22/27/1 17/20/9 18/21/8
f 10/13/16 17/20/9 3/3/19
f 5/6/15 12/15/24 14/17/21
f 26/31/12 21/26/5 25/30/10
f 21/26/5 20/25/25 25/30/10
f 20/24/25 14/17/21 24/29/11
f 27/32/2 15/18/23 28/33/3
f 14/17/21 15/18/23 24/29/11
f 26/31/12 25/30/10 27/32/2
f 21/26/5 4/5/14 19/23/13
f 4/5/14 6/7/17 7/9/17
f 16/19/22 22/27/1 28/33/3
f 16/19/22 3/3/19 17/20/9
f 2/2/7 6/8/17 1/1/4
f 22/27/1 26/31/12 27/32/2
f 25/30/10 20/25/25 24/29/11
f 22/27/1 18/21/8 23/28/6
f 10/13/16 4/4/14 7/10/17
f 1/1/4 23/28/6 18/21/8
f 13/16/20 12/15/24 11/14/18
f 14/17/21 20/24/25 19/22/13
f 16/19/22 28/33/3 15/18/23
f 5/6/15 4/4/14 10/13/16
f 22/27/1 16/19/22 17/20/9
f 10/13/16 2/2/7 17/20/9
f 5/6/15 11/14/18 12/15/24
f 26/31/12 23/28/6 21/26/5
f 21/26/5 19/23/13 20/25/25
f 27/32/2 24/29/11 15/18/23
f 14/17/21 12/15/24 15/18/23
f 21/26/5 1/1/4 4/5/14
f 4/5/14 1/1/4 6/7/17
f 16/19/22 13/16/20 3/3/19
f 2/2/7 8/11/17 6/8/17
